#N canvas 248 214 375 327 12;
#N canvas 0 23 1280 699 interface 0;
#X obj 101 101 cnv 15 248 297 empty empty empty 20 12 0 14 #e0e0e0 #404040 0;
#X obj 193 446 adc~;
#X obj 311 908 *~ 1;
#X obj 311 932 dac~;
#X obj 566 750 delwrite~ canal_de_delay 5000;
#X obj 548 594 delread~ canal_de_delay 5000;
#X obj 473 712 tgl 15 0 empty reverb_output_on_off empty 17 7 0 10 #fcfcfc #000000 #000000 0 1;
#X obj 507 671 *~ 1;
#X obj 548 420 vsl 15 128 110 5000 0 0 empty reverb_window empty 0 -9 0 10 #fcfcfc #000000 #000000 0 1;
#X floatatom 548 556 5 0 0 0 - - - 0;
#X msg 577 725 clear;
#N canvas 130 155 1768 896 pshift 0;
#X floatatom 189 87 0 -12 12 0 - - - 0;
#X obj 252 358 *~;
#X obj 375 295 line~;
#X floatatom 407 112 0 0 0 0 - - - 0;
#X text 238 9 PITCH SHIFTER;
#X obj 375 269 pack 0 200;
#X obj 189 143 exp;
#X floatatom 189 169 6 0 0 0 - - - 0;
#X obj 189 259 /;
#X obj 316 189 * 0.001;
#X obj 484 365 line~;
#X obj 484 340 pack 0 200;
#X floatatom 484 289 0 0 0 0 - - - 0;
#X obj 252 384 +~;
#X obj 189 410 cos~;
#X obj 189 437 *~;
#X obj 189 466 +~;
#X obj 276 317 wrap~;
#X obj 421 360 *~;
#X obj 421 393 +~;
#X obj 358 420 cos~;
#X obj 358 447 *~;
#X obj 662 30 loadbang;
#X obj 316 216 t b f;
#X floatatom 189 285 6 0 0 0 - - - 0;
#X obj 276 290 +~ 0.5;
#X obj 189 358 -~ 0.5;
#X obj 189 384 *~ 0.5;
#X obj 358 359 -~ 0.5;
#X obj 358 392 *~ 0.5;
#X obj 189 196 - 1;
#X obj 189 117 * 0.05776;
#X obj 189 222 * -1;
#X text 223 86 <-- transposition;
#X text 266 99 (halftones);
#X text 252 163 speed;
#X text 251 177 change;
#X text 451 111 <--window (msec);
#X text 224 252 tape head;
#X text 598 299 This is a classic rotating-tape-head style pitch shifter using the vd~ variable delay object. Ther are two moving tape heads \, each of which is loudest at the middle of its trajectory \, and enveloped out at the moment it has to jump back (or forward) to start another scratch. Most of the brain work is in computing how fast the tape heads have to move to get the desired transposition.;
#X text 598 418 The "window size" is the total trajectory of the read points in the delay line \, in milliseconds. The delay times are controlled by a phasor~ object. The second delay time \, 180 degrees out of phase from the first one \, is computed using the "wrap" object.;
#X text 596 508 The "window size" is the total trajectory of the read points in the delay line \, in milliseconds. The delay times are controlled by a phasor~ object. The second delay time \, 180 degrees out of phase from the first one \, is computed using the "wrap" object.;
#X text 595 600 The cos~ objects compute the fadein and fadeout of the two delay line outputs. They each traverse the positive half of the cosine waveform (phase -0.25 to +0.25) over the time the phase goes from one end to the other.;
#X obj 189 316 phasor~;
#X text 862 680 updated for Pd version 0.37-1;
#X obj 484 316 max 1.5;
#X text 487 222 delay;
#X text 484 240 (msec);
#X obj 407 139 max 1;
#X text 225 265 rotation freq;
#X obj 13 11 inlet~;
#X obj 189 493 outlet~;
#X obj 198 21 inlet;
#X floatatom 86 125 5 0 0 0 - - - 0;
#X obj 86 148 moses 0;
#X obj 86 172 * -1;
#X obj 86 101 * 8.32;
#X obj 656 96 f \$1;
#X obj 407 86 r window_\$0;
#X obj 662 148 pack;
#X msg 664 236 \; transpose_\$2 \$1 \; window_\$2 100 \; delay_\$2 0;
#X obj 659 63 t b b;
#X obj 696 91 f \$0;
#X obj 198 63 r transpose_\$0;
#X obj 484 263 r delay_\$0;
#X obj 14 42 delwrite~ pshift_1 500;
#X obj 421 422 vd~ pshift_1;
#X obj 252 410 vd~ pshift_1;
#X connect 0 0 31 0;
#X connect 0 0 56 0;
#X connect 1 0 13 0;
#X connect 2 0 1 1;
#X connect 2 0 18 1;
#X connect 3 0 48 0;
#X connect 5 0 2 0;
#X connect 6 0 7 0;
#X connect 7 0 30 0;
#X connect 8 0 24 0;
#X connect 9 0 23 0;
#X connect 10 0 13 1;
#X connect 10 0 19 1;
#X connect 11 0 10 0;
#X connect 12 0 45 0;
#X connect 13 0 67 0;
#X connect 14 0 15 0;
#X connect 15 0 16 0;
#X connect 16 0 51 0;
#X connect 17 0 18 0;
#X connect 17 0 28 0;
#X connect 18 0 19 0;
#X connect 19 0 66 0;
#X connect 20 0 21 0;
#X connect 21 0 16 1;
#X connect 22 0 61 0;
#X connect 23 0 8 0;
#X connect 23 1 8 1;
#X connect 24 0 43 0;
#X connect 25 0 17 0;
#X connect 26 0 27 0;
#X connect 27 0 14 0;
#X connect 28 0 29 0;
#X connect 29 0 20 0;
#X connect 30 0 32 0;
#X connect 31 0 6 0;
#X connect 32 0 8 0;
#X connect 43 0 1 0;
#X connect 43 0 26 0;
#X connect 43 0 25 0;
#X connect 45 0 11 0;
#X connect 48 0 9 0;
#X connect 48 0 5 0;
#X connect 50 0 65 0;
#X connect 52 0 0 0;
#X connect 53 0 54 0;
#X connect 54 0 55 0;
#X connect 54 1 3 0;
#X connect 55 0 3 0;
#X connect 56 0 53 0;
#X connect 57 0 59 0;
#X connect 58 0 3 0;
#X connect 59 0 60 0;
#X connect 61 0 57 0;
#X connect 61 1 62 0;
#X connect 62 0 59 1;
#X connect 63 0 0 0;
#X connect 64 0 12 0;
#X connect 66 0 21 1;
#X connect 67 0 15 1;
#X restore 399 521 pd pshift;
#N canvas 130 155 1768 896 pshift 0;
#X floatatom 189 87 0 -12 12 0 - - - 0;
#X obj 252 358 *~;
#X obj 375 295 line~;
#X floatatom 407 112 0 0 0 0 - - - 0;
#X text 238 9 PITCH SHIFTER;
#X obj 375 269 pack 0 200;
#X obj 189 143 exp;
#X floatatom 189 169 6 0 0 0 - - - 0;
#X obj 189 259 /;
#X obj 316 189 * 0.001;
#X obj 484 365 line~;
#X obj 484 340 pack 0 200;
#X floatatom 484 289 0 0 0 0 - - - 0;
#X obj 252 384 +~;
#X obj 189 410 cos~;
#X obj 189 437 *~;
#X obj 189 466 +~;
#X obj 276 317 wrap~;
#X obj 421 360 *~;
#X obj 421 393 +~;
#X obj 358 420 cos~;
#X obj 358 447 *~;
#X obj 662 30 loadbang;
#X obj 316 216 t b f;
#X floatatom 189 285 6 0 0 0 - - - 0;
#X obj 276 290 +~ 0.5;
#X obj 189 358 -~ 0.5;
#X obj 189 384 *~ 0.5;
#X obj 358 359 -~ 0.5;
#X obj 358 392 *~ 0.5;
#X obj 189 196 - 1;
#X obj 189 117 * 0.05776;
#X obj 189 222 * -1;
#X text 223 86 <-- transposition;
#X text 266 99 (halftones);
#X text 252 163 speed;
#X text 251 177 change;
#X text 451 111 <--window (msec);
#X text 224 252 tape head;
#X text 598 299 This is a classic rotating-tape-head style pitch shifter using the vd~ variable delay object. Ther are two moving tape heads \, each of which is loudest at the middle of its trajectory \, and enveloped out at the moment it has to jump back (or forward) to start another scratch. Most of the brain work is in computing how fast the tape heads have to move to get the desired transposition.;
#X text 598 418 The "window size" is the total trajectory of the read points in the delay line \, in milliseconds. The delay times are controlled by a phasor~ object. The second delay time \, 180 degrees out of phase from the first one \, is computed using the "wrap" object.;
#X text 596 508 The "window size" is the total trajectory of the read points in the delay line \, in milliseconds. The delay times are controlled by a phasor~ object. The second delay time \, 180 degrees out of phase from the first one \, is computed using the "wrap" object.;
#X text 595 600 The cos~ objects compute the fadein and fadeout of the two delay line outputs. They each traverse the positive half of the cosine waveform (phase -0.25 to +0.25) over the time the phase goes from one end to the other.;
#X obj 189 316 phasor~;
#X text 862 680 updated for Pd version 0.37-1;
#X obj 484 316 max 1.5;
#X text 487 222 delay;
#X text 484 240 (msec);
#X obj 407 139 max 1;
#X text 225 265 rotation freq;
#X obj 13 11 inlet~;
#X obj 189 493 outlet~;
#X obj 198 21 inlet;
#X floatatom 86 125 5 0 0 0 - - - 0;
#X obj 86 148 moses 0;
#X obj 86 172 * -1;
#X obj 86 101 * 8.32;
#X obj 656 96 f \$1;
#X obj 407 86 r window_\$0;
#X obj 662 148 pack;
#X msg 664 236 \; transpose_\$2 \$1 \; window_\$2 100 \; delay_\$2 0;
#X obj 659 63 t b b;
#X obj 696 91 f \$0;
#X obj 198 63 r transpose_\$0;
#X obj 484 263 r delay_\$0;
#X obj 14 42 delwrite~ pshift_2 500;
#X obj 252 410 vd~ pshift_2;
#X obj 421 422 vd~ pshift_2;
#X connect 0 0 31 0;
#X connect 0 0 56 0;
#X connect 1 0 13 0;
#X connect 2 0 1 1;
#X connect 2 0 18 1;
#X connect 3 0 48 0;
#X connect 5 0 2 0;
#X connect 6 0 7 0;
#X connect 7 0 30 0;
#X connect 8 0 24 0;
#X connect 9 0 23 0;
#X connect 10 0 13 1;
#X connect 10 0 19 1;
#X connect 11 0 10 0;
#X connect 12 0 45 0;
#X connect 13 0 66 0;
#X connect 14 0 15 0;
#X connect 15 0 16 0;
#X connect 16 0 51 0;
#X connect 17 0 18 0;
#X connect 17 0 28 0;
#X connect 18 0 19 0;
#X connect 19 0 67 0;
#X connect 20 0 21 0;
#X connect 21 0 16 1;
#X connect 22 0 61 0;
#X connect 23 0 8 0;
#X connect 23 1 8 1;
#X connect 24 0 43 0;
#X connect 25 0 17 0;
#X connect 26 0 27 0;
#X connect 27 0 14 0;
#X connect 28 0 29 0;
#X connect 29 0 20 0;
#X connect 30 0 32 0;
#X connect 31 0 6 0;
#X connect 32 0 8 0;
#X connect 43 0 1 0;
#X connect 43 0 26 0;
#X connect 43 0 25 0;
#X connect 45 0 11 0;
#X connect 48 0 9 0;
#X connect 48 0 5 0;
#X connect 50 0 65 0;
#X connect 52 0 0 0;
#X connect 53 0 54 0;
#X connect 54 0 55 0;
#X connect 54 1 3 0;
#X connect 55 0 3 0;
#X connect 56 0 53 0;
#X connect 57 0 59 0;
#X connect 58 0 3 0;
#X connect 59 0 60 0;
#X connect 61 0 57 0;
#X connect 61 1 62 0;
#X connect 62 0 59 1;
#X connect 63 0 0 0;
#X connect 64 0 12 0;
#X connect 66 0 15 1;
#X connect 67 0 21 1;
#X restore 311 845 pd pshift;
#X floatatom 489 455 5 -36 36 0 - pshift_input - 0;
#X obj 529 777 hsl 128 15 0 127 0 0 empty reverb_wet_gain empty -2 -8 0 10 #fcfcfc #000000 #000000 0 1;
#X floatatom 371 825 5 -36 36 0 - pshift_output - 0;
#X obj 345 417 tgl 15 0 empty mic_on_off empty 17 7 0 10 #fcfcfc #000000 #000000 0 1;
#X obj 634 686 r reverb_clear;
#X obj 369 902 clip 0 1;
#X obj 369 878 r volume_output;
#X floatatom 445 439 5 0 0 0 - - - 0;
#X obj 385 394 bang;
#X obj 372 442 * 1;
#X obj 445 415 / 63.5;
#X obj 449 356 hsl 128 15 0 127 0 0 empty mic_gain empty -2 -8 0 10 #fcfcfc #000000 #000000 0 1;
#X msg 1021 165 \; mic_on_off 1 \; mic_gain 63.5 \; pshift_input 0 \; reverb_window 500 \; reverb_output_on_off 1 \; reverb_dry_wet 120 \; reverb_input_on_off 1 \; pshift_output 0 \; volume_output 1 \;;
#X msg 1215 165 \; mic_on_off 0 \; mic_gain 63.5 \; pshift_input 0 \; reverb_window 500 \; reverb_output_on_off 1 \; reverb_dry_wet 120 \; reverb_input_on_off 1 \; pshift_output 0 \; volume_output 0 \;, f 32;
#X obj 108 132 tgl 20 0 mic_on_off empty mic_on_off -4 -12 2 13 #fc0400 #fcfcfc #000000 0 1;
#X obj 134 132 hsl 128 20 0 127 0 0 mic_gain empty mic_gain 5 10 2 16 #fc0400 #000000 #000000 0 1;
#X obj 133 163 hsl 128 20 -36 36 0 0 pshift_input empty pshift_input 5 10 2 16 #fc8000 #000000 #000000 0 1;
#X obj 133 194 hsl 128 20 250 5000 0 0 reverb_window empty reverb_window 5 10 2 16 #f8fc00 #000000 #000000 0 1;
#X floatatom 270 194 5 0 0 0 - - - 0;
#X floatatom 270 163 5 0 0 0 - - - 0;
#X floatatom 271 133 5 0 0 0 - - - 0;
#X obj 131 218 tgl 20 0 reverb_output_on_off empty reverb_output 21 10 2 13 #00fc04 #000000 #000000 0 1;
#X obj 238 218 tgl 20 0 reverb_input_on_off empty reverb_input 21 10 2 13 #00f8fc #000000 #000000 0 1;
#X floatatom 270 325 5 0 0 0 - - - 0;
#X obj 132 325 hsl 128 20 0 127 0 0 reverb_wet_gain empty reverb_wet_gain 5 10 2 16 #403cfc #000000 #000000 0 1;
#X obj 132 350 hsl 128 20 -36 36 0 0 pshift_output empty pshift_output 5 10 2 16 #9c00fc #000000 #000000 0 1;
#X floatatom 270 350 5 0 0 0 - - - 0;
#X obj 132 375 hsl 128 20 0 1 0 0 volume_output empty volume_output 5 10 2 16 #fcfcfc #000000 #000000 0 1;
#X floatatom 270 376 5 0 0 0 - - - 0;
#X msg 1470 163 nature of values \; mic_on_off binary 0 or 1 \; mic_gain midi input 0 to 127 \; pshift_input -36 to 36 \; reverb_window 250 to 5000 \; reverb_output_on_off binary 0 or 1 \; reverb_dry_wet midi input 0 to 127 \; reverb_input_on_off binary 0 or 1 \; pshift_output -36 to 36 \; volume_output 0 to 1 \;;
#X text 427 150 turn on;
#X text 596 154 turn off;
#X obj 281 104 tgl 20 0 empty empty DSP 1 10 2 10 #fcfcfc #000000 #000000 0 1;
#X msg 400 112 \; pd dsp \$1;
#X obj 657 15 loadbang;
#X obj 104 165 bng 20 250 50 0 empty pshift_input_reset empty 17 7 0 10 #fc8000 #000000 #000000;
#X msg 49 169 0;
#X obj 104 349 bng 20 250 50 0 empty pshift_output_reset empty 17 7 0 10 #9c00fc #000000 #000000;
#X msg 49 332 0;
#X obj 132 258 bng 20 250 50 0 reverb_clear reverb_clear_receive reverb_clear 25 7 2 13 #c4c4fc #000000 #000000;
#X obj 107 4 r osc_control;
#N canvas 445 23 777 699 OSC 0;
#X obj 364 361 sel 1;
#X obj 340 401 s reverb_clear_receive;
#X obj 516 286 * 127;
#X obj 100 540 * 127;
#X msg 115 585 \; osc_control mic_gain \$1;
#X msg 25 647 \; osc_control mic_on_off \$1;
#N canvas 0 23 882 702 shinft_input_control 0;
#X obj 37 37 inlet;
#X msg 19 196 \; osc_control pshift_input \$1;
#X obj 37 85 - 36;
#X floatatom 243 134 5 0 0 0 - - - 0;
#X obj 37 61 * 72;
#X obj 220 55 - 0;
#X obj 292 79 t b f;
#X floatatom 220 79 5 0 0 0 - - - 0;
#X obj 220 31 r pshift_input_max;
#X obj 63 125 r pshift_input_min;
#X obj 243 157 moses 0;
#X obj 243 181 * -1;
#X obj 72 13 r pshift_input_axis;
#X floatatom 72 37 5 0 0 0 - - - 0;
#X connect 0 0 4 0;
#X connect 2 0 1 0;
#X connect 3 0 6 0;
#X connect 3 0 10 0;
#X connect 4 0 2 0;
#X connect 5 0 7 0;
#X connect 6 0 5 0;
#X connect 6 1 5 1;
#X connect 7 0 4 1;
#X connect 8 0 5 0;
#X connect 9 0 3 0;
#X connect 10 0 11 0;
#X connect 10 1 2 1;
#X connect 11 0 2 1;
#X connect 12 0 4 0;
#X connect 12 0 13 0;
#X restore 199 209 pd shinft_input_control;
#N canvas 0 23 1280 699 shift_input 0;
#X obj 54 50 inlet max;
#X obj 134 50 inlet min;
#X obj 15 80 unpack f s;
#X obj 80 108 f;
#X obj 194 80 unpack f s;
#X obj 259 108 f;
#X msg 243 141 \; pshift_input_min \$1;
#X msg 56 183 \; pshift_input_max \$1;
#X obj 384 27 loadbang;
#X msg 384 51 36 -36;
#X obj 384 75 unpack;
#X connect 0 0 2 0;
#X connect 1 0 4 0;
#X connect 2 1 3 0;
#X connect 3 0 7 0;
#X connect 4 1 5 0;
#X connect 5 0 6 0;
#X connect 8 0 9 0;
#X connect 9 0 10 0;
#X connect 10 0 7 0;
#X connect 10 1 6 0;
#X restore 1179 359 pd shift_input;
#X msg 136 283 \; osc_control reverb_input_on_off \$1;
#N canvas 0 23 882 702 reverb_control 0;
#X obj 37 37 inlet;
#X msg 10 258 \; osc_control reverb_window \$1;
#X obj 310 59 - 0;
#X obj 382 83 t b f;
#X obj 333 161 moses 0;
#X obj 333 185 * -1;
#X obj 310 35 r reverb_max;
#X obj 239 115 r reverb_min;
#X obj 35 92 * 4750;
#X obj 35 116 + 250;
#X obj 114 26 r reverb_window_size_axis;
#X connect 0 0 8 0;
#X connect 2 0 8 1;
#X connect 3 0 2 0;
#X connect 3 1 2 1;
#X connect 4 0 5 0;
#X connect 4 1 9 1;
#X connect 5 0 9 1;
#X connect 6 0 2 0;
#X connect 7 0 3 0;
#X connect 7 0 4 0;
#X connect 8 0 9 0;
#X connect 9 0 1 0;
#X connect 10 0 8 0;
#X restore 383 211 pd reverb_control;
#N canvas -7 0 1766 887 reverb_set 0;
#X obj 54 50 inlet max;
#X obj 134 50 inlet min;
#X obj 15 80 unpack f s;
#X obj 80 108 f;
#X obj 194 80 unpack f s;
#X obj 259 108 f;
#X msg 56 183 \; reverb_max \$1;
#X msg 243 141 \; reverb_min \$1;
#X obj 384 27 loadbang;
#X obj 384 75 unpack;
#X msg 384 51 5000 250;
#X connect 0 0 2 0;
#X connect 1 0 4 0;
#X connect 2 1 3 0;
#X connect 3 0 6 0;
#X connect 4 1 5 0;
#X connect 5 0 7 0;
#X connect 8 0 10 0;
#X connect 9 0 6 0;
#X connect 9 1 7 0;
#X connect 10 0 9 0;
#X restore 1234 399 pd reverb_set;
#N canvas -7 0 1766 887 shift_output 0;
#X obj 54 50 inlet max;
#X obj 134 50 inlet min;
#X obj 15 80 unpack f s;
#X obj 80 108 f;
#X obj 194 80 unpack f s;
#X obj 259 108 f;
#X msg 56 183 \; pshift_output_max \$1;
#X msg 243 142 \; pshift_output_min \$1;
#X obj 384 27 loadbang;
#X msg 384 51 36 -36;
#X obj 384 75 unpack;
#X connect 0 0 2 0;
#X connect 1 0 4 0;
#X connect 2 1 3 0;
#X connect 3 0 6 0;
#X connect 4 1 5 0;
#X connect 5 0 7 0;
#X connect 8 0 9 0;
#X connect 9 0 10 0;
#X connect 10 0 6 0;
#X connect 10 1 7 0;
#X restore 1251 450 pd shift_output;
#N canvas 0 23 882 701 shinft_output_control 0;
#X obj 37 37 inlet;
#X obj 37 85 - 36;
#X obj 37 61 * 72;
#X obj 220 55 - 0;
#X obj 292 79 t b f;
#X obj 243 157 moses 0;
#X obj 243 181 * -1;
#X msg 19 196 \; osc_control pshift_output \$1;
#X obj 243 119 r pshift_output_min;
#X obj 220 31 r pshift_output_max;
#X obj 83 10 r pshift_output_axis;
#X connect 0 0 2 0;
#X connect 1 0 7 0;
#X connect 2 0 1 0;
#X connect 3 0 2 1;
#X connect 4 0 3 0;
#X connect 4 1 3 1;
#X connect 5 0 6 0;
#X connect 5 1 1 1;
#X connect 6 0 1 1;
#X connect 8 0 5 0;
#X connect 8 0 4 0;
#X connect 9 0 3 0;
#X connect 10 0 2 0;
#X restore 558 204 pd shinft_output_control;
#N canvas -7 0 1766 887 tilt_control_axis_set 0;
#X obj 51 97 unpack f s;
#X obj 164 98 unpack f s;
#X floatatom 51 121 5 0 0 0 - - - 0;
#X floatatom 164 122 5 0 0 0 - - - 0;
#X obj 51 50 inlet X_AXIS;
#X obj 164 50 inlet Y_AXIS;
#X obj 51 144 s x_axis_gate;
#X obj 164 145 s y_axis_gate;
#X connect 0 0 2 0;
#X connect 1 0 3 0;
#X connect 2 0 6 0;
#X connect 3 0 7 0;
#X connect 4 0 0 0;
#X connect 5 0 1 0;
#X restore 1296 485 pd tilt_control_axis_set;
#N canvas 0 23 1280 755 tilt_control 0;
#X obj 37 37 inlet;
#X obj 37 61 unpack f f;
#X obj 236 140 r x_axis_gate;
#X obj 368 112 r y_axis_gate;
#X obj 42 335 list prepend;
#X obj 243 336 list prepend;
#X floatatom 34 504 5 0 0 0 - - mic_gain_axis 0;
#X floatatom 52 483 5 0 0 0 - - pshift_input_axis 0;
#X floatatom 72 463 5 0 0 0 - - reverb_window_size_axis 0;
#X floatatom 92 443 5 0 0 0 - - reverb_dry_axis 0;
#X obj 36 118 spigot;
#X obj 103 119 spigot;
#X obj 143 46 r X_axis_toggle;
#X obj 258 52 r Y_axis_toggle;
#X obj 371 863 bng 15 250 50 0 empty empty empty 17 7 0 10 #fcfcfc #000000 #000000;
#X obj 292 203 ==;
#X obj 292 227 sel 1;
#X msg 292 251 0;
#X obj 228 175 t f f;
#X obj 364 149 t f b f;
#X obj 31 231 expr ($f1+1)/2;
#X obj 102 148 expr ($f1+1)/2;
#X obj 488 135 r red_XYSlider;
#X obj 837 70 r yellow_XYSlider;
#X obj 546 163 r red_x_y_toggle;
#X obj 966 79 r yellow_x_y_toggle;
#X obj 488 159 spigot;
#X obj 837 94 spigot;
#X obj 453 302 list prepend;
#X obj 654 303 list prepend;
#X obj 488 183 unpack;
#X obj 803 302 list prepend;
#X obj 1004 303 list prepend;
#X obj 838 183 unpack;
#X obj 1099 195 r yellow_y_axis_set;
#X obj 948 187 r yellow_x_axis_set;
#X obj 671 187 r red_y_axis_set;
#X obj 504 235 r red_x_axis_set;
#X obj 1092 249 unpack f s;
#X obj 874 268 unpack f s;
#X obj 703 245 unpack f s;
#X obj 508 272 unpack f s;
#X obj 143 70 tgl 19 0 empty empty empty 0 -10 0 12 #fcfcfc #000000 #000000 0 1;
#X floatatom 36 142 5 0 0 0 - - - 0;
#X obj 42 359 route 0 1 2 3 4 5 6;
#X floatatom 132 403 5 0 0 0 - - pshift_output_axis 0;
#X floatatom 152 383 5 0 0 0 - - volume_output_axis 0;
#X floatatom 112 423 5 0 0 0 - - reverb_wet_axis 0;
#X floatatom 234 504 5 0 0 0 - - mic_gain_axis 0;
#X floatatom 252 483 5 0 0 0 - - pshift_input_axis 0;
#X floatatom 272 463 5 0 0 0 - - reverb_window_size_axis 0;
#X floatatom 292 443 5 0 0 0 - - reverb_dry_axis 0;
#X obj 242 359 route 0 1 2 3 4 5 6;
#X floatatom 332 403 5 0 0 0 - - pshift_output_axis 0;
#X floatatom 352 383 5 0 0 0 - - volume_output_axis 0;
#X floatatom 312 423 5 0 0 0 - - reverb_wet_axis 0;
#X floatatom 444 469 5 0 0 0 - - mic_gain_axis 0;
#X floatatom 462 448 5 0 0 0 - - pshift_input_axis 0;
#X floatatom 482 428 5 0 0 0 - - reverb_window_size_axis 0;
#X floatatom 502 408 5 0 0 0 - - reverb_dry_axis 0;
#X obj 452 324 route 0 1 2 3 4 5 6;
#X floatatom 542 368 5 0 0 0 - - pshift_output_axis 0;
#X floatatom 562 348 5 0 0 0 - - volume_output_axis 0;
#X floatatom 522 388 5 0 0 0 - - reverb_wet_axis 0;
#X floatatom 645 469 5 0 0 0 - - mic_gain_axis 0;
#X floatatom 663 448 5 0 0 0 - - pshift_input_axis 0;
#X floatatom 683 428 5 0 0 0 - - reverb_window_size_axis 0;
#X floatatom 703 408 5 0 0 0 - - reverb_dry_axis 0;
#X obj 653 324 route 0 1 2 3 4 5 6;
#X floatatom 743 368 5 0 0 0 - - pshift_output_axis 0;
#X floatatom 763 348 5 0 0 0 - - volume_output_axis 0;
#X floatatom 723 388 5 0 0 0 - - reverb_wet_axis 0;
#X floatatom 795 469 5 0 0 0 - - mic_gain_axis 0;
#X floatatom 813 448 5 0 0 0 - - pshift_input_axis 0;
#X floatatom 833 428 5 0 0 0 - - reverb_window_size_axis 0;
#X floatatom 853 408 5 0 0 0 - - reverb_dry_axis 0;
#X obj 803 324 route 0 1 2 3 4 5 6;
#X floatatom 893 368 5 0 0 0 - - pshift_output_axis 0;
#X floatatom 913 348 5 0 0 0 - - volume_output_axis 0;
#X floatatom 873 388 5 0 0 0 - - reverb_wet_axis 0;
#X floatatom 995 469 5 0 0 0 - - mic_gain_axis 0;
#X floatatom 1013 448 5 0 0 0 - - pshift_input_axis 0;
#X floatatom 1033 428 5 0 0 0 - - reverb_window_size_axis 0;
#X floatatom 1053 408 5 0 0 0 - - reverb_dry_axis 0;
#X obj 1003 324 route 0 1 2 3 4 5 6;
#X floatatom 1093 368 5 0 0 0 - - pshift_output_axis 0;
#X floatatom 1113 348 5 0 0 0 - - volume_output_axis 0;
#X floatatom 1073 388 5 0 0 0 - - reverb_wet_axis 0;
#X connect 0 0 1 0;
#X connect 1 0 10 0;
#X connect 1 1 11 0;
#X connect 2 0 18 0;
#X connect 3 0 19 0;
#X connect 4 0 44 0;
#X connect 5 0 52 0;
#X connect 10 0 20 0;
#X connect 10 0 43 0;
#X connect 11 0 21 0;
#X connect 12 0 10 1;
#X connect 12 0 42 0;
#X connect 13 0 11 1;
#X connect 15 0 16 0;
#X connect 16 0 17 0;
#X connect 17 0 11 1;
#X connect 17 0 10 1;
#X connect 18 0 4 1;
#X connect 18 1 15 0;
#X connect 19 0 5 1;
#X connect 19 1 15 0;
#X connect 19 2 15 1;
#X connect 20 0 4 0;
#X connect 21 0 5 0;
#X connect 22 0 26 0;
#X connect 23 0 27 0;
#X connect 24 0 26 1;
#X connect 25 0 27 1;
#X connect 26 0 30 0;
#X connect 27 0 33 0;
#X connect 28 0 60 0;
#X connect 29 0 68 0;
#X connect 30 0 28 0;
#X connect 30 1 29 0;
#X connect 31 0 76 0;
#X connect 32 0 84 0;
#X connect 33 0 31 0;
#X connect 33 1 32 0;
#X connect 34 0 38 0;
#X connect 35 0 39 0;
#X connect 36 0 40 0;
#X connect 37 0 41 0;
#X connect 38 0 32 1;
#X connect 39 0 31 1;
#X connect 40 0 29 1;
#X connect 41 0 28 1;
#X connect 44 0 6 0;
#X connect 44 1 7 0;
#X connect 44 2 8 0;
#X connect 44 3 9 0;
#X connect 44 4 47 0;
#X connect 44 5 45 0;
#X connect 44 6 46 0;
#X connect 52 0 48 0;
#X connect 52 1 49 0;
#X connect 52 2 50 0;
#X connect 52 3 51 0;
#X connect 52 4 55 0;
#X connect 52 5 53 0;
#X connect 52 6 54 0;
#X connect 60 0 56 0;
#X connect 60 1 57 0;
#X connect 60 2 58 0;
#X connect 60 3 59 0;
#X connect 60 4 63 0;
#X connect 60 5 61 0;
#X connect 60 6 62 0;
#X connect 68 0 64 0;
#X connect 68 1 65 0;
#X connect 68 2 66 0;
#X connect 68 3 67 0;
#X connect 68 4 71 0;
#X connect 68 5 69 0;
#X connect 68 6 70 0;
#X connect 76 0 72 0;
#X connect 76 1 73 0;
#X connect 76 2 74 0;
#X connect 76 3 75 0;
#X connect 76 4 79 0;
#X connect 76 5 77 0;
#X connect 76 6 78 0;
#X connect 84 0 80 0;
#X connect 84 1 81 0;
#X connect 84 2 82 0;
#X connect 84 3 83 0;
#X connect 84 4 87 0;
#X connect 84 5 85 0;
#X connect 84 6 86 0;
#X restore 1657 344 pd tilt_control;
#X obj 692 346 s X_axis_toggle;
#X obj 713 402 s Y_axis_toggle;
#X obj 130 466 r mic_gain_axis;
#X msg 684 276 \; osc_control volume_output \$1;
#X obj 916 376 s red_XYSlider;
#X obj 941 437 s yellow_XYSlider;
#X obj 974 505 s red_x_y_toggle;
#X obj 1027 555 s yellow_x_y_toggle;
#X obj 1242 547 s red_x_axis_set;
#X obj 1272 568 s red_y_axis_set;
#X obj 1322 618 s yellow_y_axis_set;
#X obj 1292 597 s yellow_x_axis_set;
#X obj 2337 1303 bng 15 250 50 0 empty empty empty 17 7 0 10 #fcfcfc #000000 #000000;
#X obj 1479 497 cnv 15 1200 1200 empty empty Grid\ Parameters 20 20 1 30 #7c7c7c #000000 0;
#X obj 1484 626 route 0 1 2;
#X obj 2381 557 route 0 1 2;
#X obj 1509 1310 route 0 1 2;
#X obj 2275 682 route 0 1 2;
#X obj 1605 867 route 0 1 2;
#X obj 2436 644 route 0 1 2;
#X obj 1802 631 route 0 1 2;
#X obj 2565 610 route 0 1 2;
#X obj 1509 1334 tgl 15 0 empty empty empty 17 7 0 10 #fcfcfc #000000 #000000 0 1;
#X obj 1535 1335 tgl 15 0 empty empty empty 17 7 0 10 #fcfcfc #000000 #000000 0 1;
#X obj 1559 1334 tgl 15 0 empty empty empty 17 7 0 10 #fcfcfc #000000 #000000 0 1;
#X text 1504 603 grid 1;
#X text 2393 537 grid 2;
#X text 2293 660 coluna 1;
#X text 2447 621 coluna 2;
#X text 2569 586 coluna 3;
#X text 1512 1288 coluna 1;
#X text 1618 845 coluna 2;
#X text 1815 610 coluna 3;
#X obj 1509 1444 sel 1 0;
#X obj 1539 1414 sel 1 0;
#X obj 1559 1384 sel 1 0;
#X obj 1613 903 tgl 15 0 empty empty empty 17 7 0 10 #fcfcfc #000000 #000000 0 1;
#X obj 1639 904 tgl 15 0 empty empty empty 17 7 0 10 #fcfcfc #000000 #000000 0 1;
#X obj 1663 903 tgl 15 0 empty empty empty 17 7 0 10 #fcfcfc #000000 #000000 0 1;
#X obj 1613 1013 sel 1 0;
#X obj 1643 983 sel 1 0;
#X obj 1663 953 sel 1 0;
#X obj 1799 667 tgl 15 0 empty empty empty 17 7 0 10 #fcfcfc #000000 #000000 0 1;
#X obj 1825 668 tgl 15 0 empty empty empty 17 7 0 10 #fcfcfc #000000 #000000 0 1;
#X obj 1849 667 tgl 15 0 empty empty empty 17 7 0 10 #fcfcfc #000000 #000000 0 1;
#X obj 1799 777 sel 1 0;
#X obj 1829 747 sel 1 0;
#X obj 1849 717 sel 1 0;
#X obj 2320 713 tgl 15 0 empty empty empty 17 7 0 10 #fcfcfc #000000 #000000 0 1;
#X obj 2346 714 tgl 15 0 empty empty empty 17 7 0 10 #fcfcfc #000000 #000000 0 1;
#X obj 2370 713 tgl 15 0 empty empty empty 17 7 0 10 #fcfcfc #000000 #000000 0 1;
#X obj 2288 795 sel 1 0;
#X obj 2350 765 sel 1 0;
#X obj 2370 734 sel 1 0;
#X obj 2450 673 tgl 15 0 empty empty empty 17 7 0 10 #fcfcfc #000000 #000000 0 1;
#X obj 2476 674 tgl 15 0 empty empty empty 17 7 0 10 #fcfcfc #000000 #000000 0 1;
#X obj 2500 673 tgl 15 0 empty empty empty 17 7 0 10 #fcfcfc #000000 #000000 0 1;
#X obj 2450 783 sel 1 0;
#X obj 2480 753 sel 1 0;
#X obj 2500 723 sel 1 0;
#X obj 2560 643 tgl 15 0 empty empty empty 17 7 0 10 #fcfcfc #000000 #000000 0 1;
#X obj 2586 644 tgl 15 0 empty empty empty 17 7 0 10 #fcfcfc #000000 #000000 0 1;
#X obj 2610 643 tgl 15 0 empty empty empty 17 7 0 10 #fcfcfc #000000 #000000 0 1;
#X obj 2560 753 sel 1 0;
#X obj 2590 723 sel 1 0;
#X obj 2610 693 sel 1 0;
#X text 1751 515 in this area is the configuration of the grid parameters \, or presets \, feel free to set/change them anyway you want.;
#X text 1769 344 phone tilt;
#X obj 213 42 param 1;
#N canvas 0 22 450 278 (subpatch) 0;
#X text 0 0 plugdatainfo <?xml version="1.0" encoding="UTF-8"?> <plugdatainfo/>;
#X coords 0 1 100 -1 1 1 1;
#X restore 0 0 graph;
#X obj 193 118 == 1;
#X obj 346 120 == 1;
#X obj 454 121 == 1;
#N canvas 0 23 1280 755 17params+midi 0;
#X obj 106 74 param 2;
#X obj 174 74 param 3;
#X obj 240 74 param 4;
#X obj 310 74 param 5;
#X obj 376 74 param 6;
#X obj 444 74 param 7;
#X obj 510 74 param 8;
#X obj 579 74 param 9;
#X obj 645 74 param 10;
#X obj 714 74 param 11;
#X obj 784 74 param 12;
#X obj 850 74 param 13;
#X obj 918 74 param 14;
#X obj 984 74 param 15;
#X obj 1053 74 param 16;
#X obj 1119 74 param 17;
#X obj 10 103 outlet;
#X obj 106 103 outlet;
#X obj 174 103 outlet;
#X obj 240 103 outlet;
#X obj 310 103 outlet;
#X obj 376 103 outlet;
#X obj 444 103 outlet;
#X obj 510 103 outlet;
#X obj 579 103 outlet;
#X obj 645 103 outlet;
#X obj 714 103 outlet;
#X obj 784 103 outlet;
#X obj 850 103 outlet;
#X obj 918 103 outlet;
#X obj 984 103 outlet;
#X obj 1053 103 outlet;
#X obj 1119 103 outlet;
#N canvas 0 22 450 278 (subpatch) 0;
#X text 0 0 plugdatainfo <?xml version="1.0" encoding="UTF-8"?> <plugdatainfo/>;
#X coords 0 1 100 -1 1 1 1;
#X restore 40 0 graph;
#X obj 10 74 param param1;
#X connect 0 0 17 0;
#X connect 1 0 18 0;
#X connect 2 0 19 0;
#X connect 3 0 20 0;
#X connect 4 0 21 0;
#X connect 5 0 22 0;
#X connect 6 0 23 0;
#X connect 7 0 24 0;
#X connect 8 0 25 0;
#X connect 9 0 26 0;
#X connect 10 0 27 0;
#X connect 11 0 28 0;
#X connect 12 0 29 0;
#X connect 13 0 30 0;
#X connect 14 0 31 0;
#X connect 15 0 32 0;
#X connect 34 0 16 0;
#X restore 228 82 pd 17params+midi;
#X f 110;
#N canvas 0 23 1280 699 shift_input 0;
#X obj 54 50 inlet max;
#X obj 134 50 inlet min;
#X msg 243 141 \; pshift_input_min \$1;
#X msg 56 183 \; pshift_input_max \$1;
#X obj 384 27 loadbang;
#X msg 384 51 36 -36;
#X obj 384 75 unpack;
#X connect 4 0 5 0;
#X connect 5 0 6 0;
#X connect 6 0 3 0;
#X connect 6 1 2 0;
#X restore 2141 162 pd shift_input;
#N canvas 0 23 1280 755 reverb_set 0;
#X obj 54 50 inlet max;
#X obj 134 50 inlet min;
#X obj 15 80 unpack f s;
#X obj 80 108 f;
#X obj 194 80 unpack f s;
#X obj 259 108 f;
#X msg 56 183 \; reverb_max \$1;
#X msg 243 141 \; reverb_min \$1;
#X obj 384 27 loadbang;
#X obj 384 75 unpack;
#X msg 384 51 5000 250;
#X connect 0 0 2 0;
#X connect 1 0 4 0;
#X connect 2 1 3 0;
#X connect 3 0 6 0;
#X connect 4 1 5 0;
#X connect 5 0 7 0;
#X connect 8 0 10 0;
#X connect 9 0 6 0;
#X connect 9 1 7 0;
#X connect 10 0 9 0;
#X restore 2196 202 pd reverb_set;
#N canvas -7 0 1766 887 shift_output 0;
#X obj 54 50 inlet max;
#X obj 134 50 inlet min;
#X obj 15 80 unpack f s;
#X obj 80 108 f;
#X obj 194 80 unpack f s;
#X obj 259 108 f;
#X msg 56 183 \; pshift_output_max \$1;
#X msg 243 142 \; pshift_output_min \$1;
#X obj 384 27 loadbang;
#X msg 384 51 36 -36;
#X obj 384 75 unpack;
#X connect 0 0 2 0;
#X connect 1 0 4 0;
#X connect 2 1 3 0;
#X connect 3 0 6 0;
#X connect 4 1 5 0;
#X connect 5 0 7 0;
#X connect 8 0 9 0;
#X connect 9 0 10 0;
#X connect 10 0 6 0;
#X connect 10 1 7 0;
#X restore 2213 253 pd shift_output;
#N canvas 0 23 1280 755 tilt_control_axis_set 0;
#X obj 51 97 unpack f s;
#X obj 164 98 unpack f s;
#X floatatom 51 121 5 0 0 0 - - - 0;
#X floatatom 164 122 5 0 0 0 - - - 0;
#X obj 51 50 inlet X_AXIS;
#X obj 164 50 inlet Y_AXIS;
#X obj 51 144 s x_axis_gate;
#X obj 164 145 s y_axis_gate;
#X connect 0 0 2 0;
#X connect 1 0 3 0;
#X connect 2 0 6 0;
#X connect 3 0 7 0;
#X connect 4 0 0 0;
#X connect 5 0 1 0;
#X restore 2258 288 pd tilt_control_axis_set;
#X msg 439 336 \; osc_control reverb_wet_gain \$1;
#X obj 979 221 * 127;
#X msg 973 243 \; osc_control reverb_dry_gain \$1;
#X msg 1044 198 \; osc_control reverb_output_on_off \$1;
#X obj 34 53 netreceive -u -b 54321;
#X obj 34 96 oscparse;
#X obj 27 125 list trim;
#X obj 21 153 route rec_toggle rec_knob pshift_input_reset pshift_input_knob Rev_in reverb_knob reverb_clear reverb_wet pshift_output_knob pshift_output_reset volume_output X_axis_toggle Y_axis_toggle red_XYSlider yellow_XYSlider red_x_y_toggle yellow_x_y_toggle reverb_dry rev_out, f 166;
#X obj 1199 260 route pshift_input_max_set pshift_input_min_set reverb_max_set reverb_min_set pshift_output_max_set pshift_output_min_set X_axis_set Y_axis_set red_x_axis_set red_y_axis_set yellow_x_axis_set yellow_y_axis_set preset_grid_1 preset_grid_2 tilts;
#X obj 521 257 r reverb_wet_axis;
#X obj 950 196 r reverb_dry_axis;
#X msg 2313 848 36;
#X msg 2353 848 24;
#X msg 2393 848 12;
#X msg 2503 848 -24;
#X msg 2602 852 0;
#X msg 2342 925 \; osc_control pshift_output \$1;
#X msg 2463 848 -12;
#X msg 2543 848 -36;
#X connect 0 0 1 0;
#X connect 2 0 93 0;
#X connect 3 0 4 0;
#X connect 17 0 3 0;
#X connect 29 0 31 0;
#X connect 29 1 33 0;
#X connect 29 2 35 0;
#X connect 30 0 32 0;
#X connect 30 1 34 0;
#X connect 30 2 36 0;
#X connect 31 0 37 0;
#X connect 31 1 38 0;
#X connect 31 2 39 0;
#X connect 32 0 63 0;
#X connect 32 1 64 0;
#X connect 32 2 65 0;
#X connect 33 0 51 0;
#X connect 33 1 52 0;
#X connect 33 2 53 0;
#X connect 34 0 69 0;
#X connect 34 1 70 0;
#X connect 34 2 71 0;
#X connect 35 0 57 0;
#X connect 35 1 58 0;
#X connect 35 2 59 0;
#X connect 36 0 75 0;
#X connect 36 1 76 0;
#X connect 36 2 77 0;
#X connect 37 0 48 0;
#X connect 38 0 49 0;
#X connect 39 0 50 0;
#X connect 51 0 54 0;
#X connect 52 0 55 0;
#X connect 53 0 56 0;
#X connect 57 0 60 0;
#X connect 58 0 61 0;
#X connect 59 0 62 0;
#X connect 63 0 66 0;
#X connect 64 0 67 0;
#X connect 65 0 68 0;
#X connect 66 0 104 0;
#X connect 66 1 104 0;
#X connect 67 0 105 0;
#X connect 67 1 105 0;
#X connect 68 0 106 0;
#X connect 68 1 106 0;
#X connect 69 0 72 0;
#X connect 70 0 73 0;
#X connect 71 0 74 0;
#X connect 72 0 110 0;
#X connect 72 1 110 0;
#X connect 73 0 107 0;
#X connect 73 1 107 0;
#X connect 74 0 111 0;
#X connect 74 1 111 0;
#X connect 75 0 78 0;
#X connect 75 0 108 0;
#X connect 76 0 79 0;
#X connect 76 0 108 0;
#X connect 77 0 80 0;
#X connect 77 0 108 0;
#X connect 85 0 5 0;
#X connect 86 0 8 0;
#X connect 87 0 0 0;
#X connect 88 0 85 0;
#X connect 88 1 3 0;
#X connect 88 2 6 0;
#X connect 88 3 86 0;
#X connect 88 4 9 0;
#X connect 88 5 87 0;
#X connect 88 6 2 0;
#X connect 88 7 12 0;
#X connect 88 8 18 0;
#X connect 94 0 95 0;
#X connect 97 0 98 0;
#X connect 98 0 99 0;
#X connect 99 0 100 0;
#X connect 100 0 5 0;
#X connect 100 1 3 0;
#X connect 100 3 6 0;
#X connect 100 4 8 0;
#X connect 100 5 9 0;
#X connect 100 6 0 0;
#X connect 100 7 2 0;
#X connect 100 8 12 0;
#X connect 100 10 18 0;
#X connect 100 11 15 0;
#X connect 100 12 16 0;
#X connect 100 13 19 0;
#X connect 100 14 20 0;
#X connect 100 15 21 0;
#X connect 100 16 22 0;
#X connect 100 17 94 0;
#X connect 100 18 96 0;
#X connect 100 19 101 0;
#X connect 101 0 7 0;
#X connect 101 1 7 1;
#X connect 101 2 10 0;
#X connect 101 3 10 1;
#X connect 101 4 11 0;
#X connect 101 5 11 1;
#X connect 101 6 13 0;
#X connect 101 7 13 1;
#X connect 101 8 23 0;
#X connect 101 9 24 0;
#X connect 101 10 26 0;
#X connect 101 11 25 0;
#X connect 101 12 29 0;
#X connect 101 13 30 0;
#X connect 101 14 14 0;
#X connect 102 0 2 0;
#X connect 103 0 94 0;
#X connect 104 0 109 0;
#X connect 105 0 109 0;
#X connect 106 0 109 0;
#X connect 107 0 109 0;
#X connect 108 0 109 0;
#X connect 110 0 109 0;
#X connect 111 0 109 0;
#X restore 1021 42 pd OSC;
#X text 1071 43 <---- OSC Messages;
#N canvas 0 22 450 278 (subpatch) 0;
#X text 0 0 plugdatainfo <?xml version="1.0" encoding="UTF-8"?> <plugdatainfo/>;
#X coords 0 1 100 -1 1 1 1;
#X restore 0 0 graph;
#X obj 473 732 pack f 10;
#X obj 473 756 line~;
#X obj 364 731 *~;
#X obj 472 794 *~;
#X obj 526 795 / 127;
#X obj 526 819 pow 2;
#X obj 526 843 pack f 10;
#X obj 526 867 line~;
#X obj 146 690 *~;
#X obj 345 588 r dry_gain;
#X obj 345 662 pack f 10;
#X obj 345 686 line~;
#X obj 253 877 expr~ tanh($v1);
#X floatatom 270 301 5 0 0 0 - - - 0;
#X obj 132 300 hsl 128 20 0 127 0 0 dry_gain empty reverb_dry_gain 5 10 2 16 #403cfc #000000 #000000 0 1;
#X obj 345 610 / 127;
#X obj 345 636 pow 2;
#X msg 558 56 1 63.5 0 500 1 1 100 120 0 1;
#X obj 616 76 unpack f f f f f f f f f f;
#X obj 472 525 tgl 15 0 empty reverb_input_on_off empty 17 7 0 10 #fcfcfc #000000 #000000 0 1;
#X obj 453 596 *~;
#X obj 472 545 pack f 10;
#X obj 472 569 line~;
#X obj 97 27 route mic_on_off mic_gain pshift_input reverb_window reverb_output_on_off reverb_dry_gain reverb_wet_gain reverb_input_on_off pshift_output volume_output;
#X msg 804 52 0 63.5 0 500 0 0 120 120 0 0;
#X obj 348 465 pack f 10;
#X obj 333 487 line~;
#X obj 280 508 *~;
#X connect 1 0 84 0;
#X connect 2 0 3 0;
#X connect 2 0 3 1;
#X connect 5 0 7 0;
#X connect 6 0 57 0;
#X connect 7 0 59 0;
#X connect 7 0 4 0;
#X connect 8 0 9 0;
#X connect 9 0 5 0;
#X connect 10 0 4 0;
#X connect 11 0 65 0;
#X connect 11 0 77 0;
#X connect 12 0 69 0;
#X connect 13 0 11 1;
#X connect 14 0 61 0;
#X connect 15 0 12 1;
#X connect 16 0 22 0;
#X connect 17 0 10 0;
#X connect 18 0 2 1;
#X connect 19 0 18 0;
#X connect 20 0 21 0;
#X connect 20 0 22 1;
#X connect 21 0 22 0;
#X connect 22 0 82 0;
#X connect 23 0 20 0;
#X connect 24 0 23 0;
#X connect 28 0 33 0;
#X connect 29 0 32 0;
#X connect 30 0 31 0;
#X connect 37 0 36 0;
#X connect 38 0 39 0;
#X connect 40 0 41 0;
#X connect 45 0 46 0;
#X connect 47 0 48 0;
#X connect 47 0 81 0;
#X connect 48 0 49 0;
#X connect 49 0 29 0;
#X connect 50 0 51 0;
#X connect 51 0 38 0;
#X connect 53 0 80 0;
#X connect 57 0 58 0;
#X connect 58 0 60 0;
#X connect 59 0 12 0;
#X connect 60 0 59 1;
#X connect 61 0 62 0;
#X connect 62 0 63 0;
#X connect 63 0 64 0;
#X connect 64 0 60 1;
#X connect 65 0 12 0;
#X connect 66 0 72 0;
#X connect 67 0 68 0;
#X connect 68 0 65 1;
#X connect 69 0 2 0;
#X connect 71 0 70 0;
#X connect 72 0 73 0;
#X connect 73 0 67 0;
#X connect 74 0 75 0;
#X connect 75 0 27 0;
#X connect 75 1 28 0;
#X connect 75 2 29 0;
#X connect 75 3 30 0;
#X connect 75 4 34 0;
#X connect 75 5 35 0;
#X connect 75 6 71 0;
#X connect 75 7 37 0;
#X connect 75 8 38 0;
#X connect 75 9 40 0;
#X connect 76 0 78 0;
#X connect 77 0 7 0;
#X connect 78 0 79 0;
#X connect 79 0 77 1;
#X connect 80 0 27 0;
#X connect 80 1 28 0;
#X connect 80 2 29 0;
#X connect 80 3 30 0;
#X connect 80 4 34 0;
#X connect 80 5 71 0;
#X connect 80 6 37 0;
#X connect 80 7 35 0;
#X connect 80 8 38 0;
#X connect 80 9 40 0;
#X connect 81 0 75 0;
#X connect 82 0 83 0;
#X connect 83 0 84 1;
#X connect 84 0 11 0;
#X coords 0 -1 1 1 250 300 1 100 100;
#X restore 2 7 pd interface;
#N canvas 78 93 561 402 readme 0;
#X text 12 11 patch developed by Igor Aguilar in April 2022 This patch is free to be used for all purposes \, I only ask that you notify me of your use and any alterations to know how far this work went.;
#X text 12 72 tag me on instagram @igor_aguilar_dsp;
#X text 12 95 or email me at igor.abdo.aguilar@gmail.com;
#X text 12 117 for any calibrations or preset configuration \, enter the main interface \, go to the [pd OSC] abstraction \, there you will have access to the OSC message routing and can calibrate the tilt information as well as change maximum and minimum for all parameters \,;
#X text 12 196 there is another patch that goes with the mobmuplat interface \, it is called "phone_control.pd" for the mobmuplat file "Control_Interface.mmp";
#X text 16 296 This patch was developed for the Doctorate work of Elielson da Silva Gomes \, at UFPA \, aka the Federal University of Pará. To bring back performances of electroacustic music for trumpet from the 20th century.;
#X restore 266 163 pd readme;
#X text 253 28 by Igor Aguilar;
#X text 272 56 2022;
